<svg xmlns="http://www.w3.org/2000/svg" width="419.782" height="238.719" viewBox="0 0 419.782 238.719"><g transform="translate(-1267 -79)" opacity="0.2"><path d="M1624.645,206.822A23.823,23.823,0,1,1,1600.823,183,23.747,23.747,0,0,1,1624.645,206.822Z" transform="translate(-33.762 -11.218)" fill="none" stroke="#13547a" stroke-linejoin="round" stroke-width="3"/><path d="M1585.806,319.445l-7.018-31.112-5.029,8.54-2.239,3.8a7.758,7.758,0,0,1-6.685,3.821h-42.7a3.561,3.561,0,0,1-3.561-3.623h0A14.435,14.435,0,0,1,1533,286.685h21.092l17.746-29.257a20.626,20.626,0,0,1,17.634-9.928H1608.2a26.717,26.717,0,0,1,26.081,20.921l15.139,67.244" transform="translate(-27.368 -18.276)" fill="none" stroke="#13547a" stroke-linejoin="round" stroke-width="3"/><path d="M1463.047,305.894h0a4.937,4.937,0,0,0,4.41-7.158L1439.892,244h0a4.937,4.937,0,0,0-4.41,7.158l24.2,48.047Z" transform="translate(-18.216 -17.893)" fill="none" stroke="#13547a" stroke-linejoin="round" stroke-width="3"/><line x2="65.901" transform="translate(1444.831 294.235)" fill="none" stroke="#13547a" stroke-linejoin="round" stroke-width="3"/><path d="M1658.65,178.935a36.518,36.518,0,1,1,32.363,19.591" transform="translate(-42.244 -4.925)" fill="none" stroke="#13547a" stroke-linejoin="round" stroke-width="3"/><path d="M1677.544,183.827c-7.668-15.229,1.533-20.56,9.2-18.276s10.735,12.184,6.9,11.422-21.293-19.2-6.9-21.322c16.243-2.39,20.266,8.409,13.8,7.615s-11.832-16.322-6.465-20.892,28.7,16.323,16.432,26.223-11.5,4.569-12.268,3.046,17.956-.64,9.2,5.33c-20.489,13.972-31.436-7.614-32.969-19.038s19.935-4.578,14.568,9.891" transform="translate(-44.421 -6.701)" fill="none" stroke="#13547a" stroke-linejoin="round" stroke-width="3"/><circle cx="8.015" cy="8.015" r="8.015" transform="translate(1616.709 183.805)" fill="none" stroke="#13547a" stroke-linejoin="round" stroke-width="3"/><circle cx="5.789" cy="5.789" r="5.789" transform="translate(1600.679 199.835)" fill="none" stroke="#13547a" stroke-linejoin="round" stroke-width="3"/><path d="M1465,253.771h79.705l-33.841-30.34" transform="translate(-21.505 -15.642)" fill="none" stroke="#13547a" stroke-linejoin="round" stroke-width="3"/><path d="M1489.359,196.273V91.38a10.88,10.88,0,0,0-10.88-10.88h-199.1a10.88,10.88,0,0,0-10.88,10.88V227.249a10.88,10.88,0,0,0,10.88,10.88h124.083" fill="none" stroke="#13547a" stroke-linejoin="round" stroke-width="3"/><rect width="115.914" height="75.258" rx="9.713" stroke-width="3" fill="none" stroke="#13547a" stroke-linejoin="round" transform="translate(1318.69 115.971)"/><line x2="56.227" transform="translate(1347.236 214.584)" fill="none" stroke="#13547a" stroke-linejoin="round" stroke-width="3"/><line x2="108.561" transform="translate(1318.599 175.658)" fill="none" stroke="#13547a" stroke-linejoin="round" stroke-width="3"/><line x2="7.353" transform="translate(1408.221 214.584)" fill="none" stroke="#13547a" stroke-linejoin="round" stroke-width="3"/><line x1="6.92" y2="23.356" transform="translate(1357.616 191.228)" fill="none" stroke="#13547a" stroke-linejoin="round" stroke-width="3"/><line x2="6.92" y2="23.356" transform="translate(1388.757 191.228)" fill="none" stroke="#13547a" stroke-linejoin="round" stroke-width="3"/><line y2="11.739" transform="translate(1295.919 92.313)" fill="none" stroke="#13547a" stroke-linejoin="round" stroke-width="3"/><line y2="11.739" transform="translate(1295.919 117.516)" fill="none" stroke="#13547a" stroke-linejoin="round" stroke-width="3"/><line x1="8.286" transform="translate(1300.579 110.784)" fill="none" stroke="#13547a" stroke-linejoin="round" stroke-width="3"/><line x1="8.286" transform="translate(1282.972 110.784)" fill="none" stroke="#13547a" stroke-linejoin="round" stroke-width="3"/><line y2="11.739" transform="translate(1459.046 164.229)" fill="none" stroke="#13547a" stroke-linejoin="round" stroke-width="3"/><line y2="11.739" transform="translate(1459.046 189.432)" fill="none" stroke="#13547a" stroke-linejoin="round" stroke-width="3"/><line x1="8.286" transform="translate(1463.707 182.7)" fill="none" stroke="#13547a" stroke-linejoin="round" stroke-width="3"/><line x1="8.286" transform="translate(1446.099 182.7)" fill="none" stroke="#13547a" stroke-linejoin="round" stroke-width="3"/><line y2="15.14" transform="translate(1336.183 149.073)" fill="none" stroke="#13547a" stroke-linejoin="round" stroke-width="3"/><line y2="23.155" transform="translate(1350.432 141.503)" fill="none" stroke="#13547a" stroke-linejoin="round" stroke-width="3"/><line y2="34.732" transform="translate(1364.681 129.926)" fill="none" stroke="#13547a" stroke-linejoin="round" stroke-width="3"/><path d="M1409.78,142.525a13.132,13.132,0,1,0,11.981,7.012" transform="translate(-14.063 -6.788)" fill="none" stroke="#13547a" stroke-linejoin="round" stroke-width="3"/><path d="M1412.015,136.7c-.174,0-.342.021-.515.026v18.5l17.366-8.336A19.029,19.029,0,0,0,1412.015,136.7Z" transform="translate(-15.65 -6.15)" fill="none" stroke="#13547a" stroke-linejoin="round" stroke-width="3"/></g></svg>